<svg width="44" height="26" viewBox="0 0 44 26" fill="none" xmlns="http://www.w3.org/2000/svg">
<g  transform="scale(2)">
<path d="M20.7624 0.413688C20.4866 0.137909 20.1538 0 19.7641 0H1.41173C1.02203 0 0.689391 0.137948 0.41365 0.413688C0.137948 0.689429 0 1.02219 0 1.41177V11.2939C0 11.6836 0.137948 12.0162 0.41365 12.292C0.689429 12.5678 1.02203 12.7058 1.41173 12.7058H19.7641C20.1538 12.7058 20.4866 12.5678 20.7624 12.292C21.038 12.0162 21.176 11.6836 21.176 11.2939V1.41177C21.176 1.02219 21.038 0.689429 20.7624 0.413688ZM19.7641 11.2939H1.41173V1.41177H19.7641V11.2939Z" fill="#1A1A1A"/>
<path d="M2.99989 9.882H4.05866C4.17632 9.882 4.23516 9.82305 4.23516 9.70554V8.64677C4.23516 8.52937 4.17644 8.47031 4.05866 8.47031H2.99989C2.8823 8.47031 2.82343 8.52937 2.82343 8.64677V9.70554C2.82343 9.82305 2.8823 9.882 2.99989 9.882Z" fill="#1A1A1A"/>
<path d="M2.99989 7.05881H5.47043C5.58806 7.05881 5.64697 6.9997 5.64697 6.88219V5.82334C5.64697 5.70571 5.58806 5.647 5.47043 5.64688H2.99989C2.8823 5.64688 2.82343 5.70571 2.82343 5.82334V6.88219C2.82343 6.9997 2.8823 7.05881 2.99989 7.05881Z" fill="#1A1A1A"/>
<path d="M2.99989 4.2352H4.05866C4.17632 4.2352 4.23516 4.17629 4.23516 4.05866V2.99996C4.23516 2.8823 4.17644 2.82362 4.05866 2.82343H2.99989C2.8823 2.82343 2.82343 2.8823 2.82343 2.99996V4.05866C2.82343 4.17629 2.8823 4.2352 2.99989 4.2352Z" fill="#1A1A1A"/>
<path d="M15.3527 8.4704H5.82351C5.70585 8.4704 5.64697 8.52935 5.64697 8.64701V9.70563C5.64697 9.82303 5.70585 9.88225 5.82351 9.88225H15.3524C15.47 9.88225 15.529 9.8233 15.529 9.70563V8.64701C15.529 8.52939 15.4701 8.4704 15.3527 8.4704Z" fill="#1A1A1A"/>
<path d="M7.05865 6.88219C7.05865 6.9997 7.11749 7.05881 7.235 7.05881H8.29392C8.41151 7.05881 8.47027 6.9997 8.47027 6.88219V5.82334C8.47027 5.70571 8.41163 5.647 8.29392 5.64688H7.235C7.11749 5.64688 7.05865 5.70571 7.05865 5.82334V6.88219Z" fill="#1A1A1A"/>
<path d="M5.82351 4.2352H6.8822C6.99987 4.2352 7.05874 4.17629 7.05874 4.05866V2.99996C7.05874 2.8823 6.99987 2.82362 6.8822 2.82343H5.82351C5.70585 2.82343 5.64697 2.8823 5.64697 2.99996V4.05866C5.64697 4.17629 5.70588 4.2352 5.82351 4.2352Z" fill="#1A1A1A"/>
<path d="M9.88205 6.88219C9.88205 6.9997 9.94092 7.05881 10.0585 7.05881H11.1173C11.2349 7.05881 11.2939 6.9997 11.2939 6.88219V5.82334C11.2939 5.70571 11.2349 5.647 11.1173 5.64688H10.0585C9.94092 5.64688 9.88205 5.70571 9.88205 5.82334V6.88219Z" fill="#1A1A1A"/>
<path d="M8.64682 4.2352H9.70551C9.82317 4.2352 9.88205 4.17629 9.88205 4.05866V2.99996C9.88205 2.8823 9.82329 2.82362 9.70551 2.82343H8.64682C8.52915 2.82343 8.47028 2.8823 8.47028 2.99996V4.05866C8.47028 4.17629 8.52915 4.2352 8.64682 4.2352Z" fill="#1A1A1A"/>
<path d="M12.7056 6.88219C12.7056 6.9997 12.7645 7.05881 12.8819 7.05881H13.9408C14.0584 7.05881 14.1171 6.9997 14.1171 6.88219V5.82334C14.1171 5.70571 14.0584 5.647 13.9408 5.64688H12.8819C12.7645 5.64688 12.7056 5.70571 12.7056 5.82334V6.88219Z" fill="#1A1A1A"/>
<path d="M18.1759 8.4704H17.1173C16.9996 8.4704 16.9407 8.52935 16.9407 8.64701V9.70563C16.9407 9.82303 16.9996 9.88225 17.1173 9.88225H18.1759C18.2936 9.88225 18.3525 9.8233 18.3525 9.70563V8.64701C18.3525 8.52939 18.2937 8.4704 18.1759 8.4704Z" fill="#1A1A1A"/>
<path d="M11.4703 4.2352H12.5292C12.6469 4.2352 12.7056 4.17629 12.7056 4.05866V2.99996C12.7056 2.8823 12.6468 2.82362 12.5292 2.82343H11.4703C11.3527 2.82343 11.294 2.8823 11.294 2.99996V4.05866C11.2939 4.17629 11.3527 4.2352 11.4703 4.2352Z" fill="#1A1A1A"/>
<path d="M14.2938 4.2352H15.3524C15.4701 4.2352 15.529 4.17629 15.529 4.05866V2.99996C15.529 2.8823 15.4701 2.82362 15.3524 2.82343H14.2938C14.1761 2.82343 14.1172 2.8823 14.1172 2.99996V4.05866C14.1171 4.17629 14.1761 4.2352 14.2938 4.2352Z" fill="#1A1A1A"/>
<path d="M15.5289 6.8822C15.5289 6.99971 15.5877 7.05882 15.7054 7.05882H18.1759C18.2935 7.05882 18.3525 6.99971 18.3525 6.8822V2.99996C18.3525 2.8823 18.2937 2.82362 18.1759 2.82343H17.1172C16.9996 2.82343 16.9406 2.8823 16.9406 2.99996V5.64689H15.7054C15.5877 5.64689 15.5289 5.70572 15.5289 5.82335V6.8822H15.5289Z" fill="#1A1A1A"/>
</g>
</svg>
